<svg width="271" height="77" viewBox="0 0 271 77" fill="none" xmlns="http://www.w3.org/2000/svg">
<g clip-path="url(#clip0_822_1802)">
<g clip-path="url(#clip1_822_1802)">
<path d="M65.1538 0H11.8462C5.3037 0 0 5.3037 0 11.8462V65.1538C0 71.6963 5.3037 77 11.8462 77H65.1538C71.6963 77 77 71.6963 77 65.1538V11.8462C77 5.3037 71.6963 0 65.1538 0Z" fill="#14E3A6"/>
<path d="M46.9076 25.9221C45.8896 27.7091 44.9517 29.4496 43.8956 31.1181C43.6844 31.4562 43.0338 31.6758 42.586 31.6801C35.5439 31.718 28.5017 31.7223 21.4637 31.6927C20.7245 31.6927 20.3105 31.9293 19.9767 32.5503C19.3853 33.6571 18.6926 34.709 18.156 35.8369C17.9744 36.2172 17.966 36.8592 18.173 37.214C22.0382 43.9816 25.9458 50.7238 29.8409 57.4788C30.5547 58.7123 31.2433 59.9626 31.932 61.2089C32.0713 61.4624 32.16 61.7412 32.3417 62.1762C30.2125 62.1762 28.2821 62.2059 26.3557 62.1468C26.0642 62.1383 25.6756 61.7918 25.5108 61.5046C21.3666 54.34 17.2478 47.1584 13.1163 39.9853C12.546 38.9926 11.9292 38.0252 11.3927 37.0155C11.2617 36.7705 11.2364 36.3312 11.3673 36.0989C13.205 32.8629 15.0637 29.6355 16.9605 26.4333C17.1336 26.1376 17.5985 25.8376 17.9279 25.8376C27.5048 25.8165 37.0774 25.8376 46.6541 25.8503C46.6879 25.8503 46.7218 25.8715 46.9076 25.9264V25.9221Z" fill="#171717"/>
<path d="M44.5716 51.0702C43.997 50.0394 43.5324 49.1735 43.0338 48.3285C40.8667 44.6744 40.9807 46.1065 43.093 42.3763C46.1304 37.0239 49.2352 31.7096 52.3318 26.3911C52.7458 25.6813 52.788 25.1321 52.2812 24.4183C51.5799 23.4297 51.0644 22.3102 50.4055 21.2879C50.2197 20.9965 49.8351 20.6965 49.5056 20.6543C48.7072 20.5487 47.8919 20.5825 47.0809 20.5825C38.5938 20.574 30.1113 20.5782 21.6244 20.5613C21.3116 20.5613 20.999 20.4051 20.6823 20.3205C20.7836 20.0079 20.8385 19.6657 20.9949 19.3827C21.7468 18.0055 22.4945 16.6284 23.3184 15.2976C23.483 15.0358 23.9689 14.8414 24.3111 14.8414C27.9736 14.8076 31.6363 14.8161 35.2945 14.8161C40.9638 14.8161 46.6331 14.8161 52.3022 14.8076C53.0331 14.8076 53.5104 14.9006 53.9413 15.7032C55.534 18.6772 57.3251 21.5456 58.9515 24.5027C59.2093 24.9716 59.2008 25.8334 58.9389 26.3024C55.91 31.6717 52.8049 36.9944 49.7211 42.3341C48.2425 44.894 46.7724 47.4626 45.2896 50.0225C45.1206 50.3141 44.9095 50.576 44.5673 51.0745L44.5716 51.0702Z" fill="#171717"/>
<path d="M44.8841 62.1762C43.0887 62.1762 41.2933 62.2143 39.498 62.1468C39.1134 62.134 38.5813 61.8257 38.387 61.4961C34.8975 55.5566 31.4462 49.5959 27.9948 43.6352C26.8119 41.5906 25.6756 39.5122 24.4589 37.4887C23.973 36.6775 24.2942 36.4705 25.0334 36.4705C26.6514 36.4705 28.2778 36.4283 29.8874 36.5508C30.3098 36.5847 30.8251 37.0788 31.0702 37.4971C34.4117 43.2043 37.7701 48.8989 40.9891 54.6779C41.8129 56.1565 42.7381 56.5662 44.4025 56.6972C46.9414 56.9 48.2129 55.9538 49.4042 53.7781C53.4175 46.453 57.6758 39.2587 61.8538 32.0222C62.0312 31.718 62.3438 31.49 62.593 31.2239C62.8465 31.4815 63.1634 31.7011 63.3449 32.0053C64.0631 33.2008 64.7306 34.4259 65.4403 35.6256C65.8036 36.2466 65.8204 36.8 65.4403 37.4507C60.7891 45.4475 56.1718 53.4613 51.5038 61.4498C51.2926 61.8087 50.7053 62.1299 50.2744 62.1468C48.4833 62.2227 46.6837 62.1805 44.8883 62.1805L44.8841 62.1762Z" fill="#171717"/>
</g>
<path d="M111.592 57.0081C104.824 57.0081 99.064 53.1581 97 46.95L103.096 44.2069C104.872 48.1531 108.232 50.5113 112.072 50.5113C115.096 50.5113 117.064 49.0194 117.064 46.7094C117.064 45.025 116.056 43.87 113.896 43.1481L106.888 40.8381C101.176 38.9613 98.296 35.4963 98.296 30.6838C98.296 24.3794 103.336 20 110.68 20C117.112 20 122.344 23.465 124.36 29.0956L118.312 31.8387C116.968 28.5181 114.136 26.4969 110.68 26.4969C107.656 26.4969 105.64 28.085 105.64 30.395C105.64 32.0794 106.744 33.3306 108.904 34.0525L115.768 36.2663C121.528 38.1431 124.36 41.4638 124.36 46.2763C124.36 52.5806 119.128 57.0081 111.592 57.0081ZM131.294 67.1144C129.758 67.1144 128.27 66.8738 127.166 66.2963V60.3769C128.078 60.6656 129.374 60.8581 130.43 60.8581C133.262 60.8581 134.174 59.27 134.942 57.5375L135.422 56.4306L125.102 30.1544H132.83L139.022 47.0463L145.214 30.1544H152.942L141.71 58.885C139.55 64.3713 136.094 67.1144 131.294 67.1144ZM154.169 56.4306V30.1544H160.889V34.1006C162.233 30.8281 164.777 29.8656 167.993 29.8656H169.529V36.1219H167.273C163.769 36.1219 161.369 38.3838 161.369 42.2819V56.4306H154.169ZM178.877 57.0081C173.213 57.0081 169.709 54.1688 169.709 49.4044C169.709 44.9769 172.733 41.9931 179.021 40.9825L186.269 39.8275V39.1056C186.269 37.1325 184.589 35.5925 181.901 35.5925C179.309 35.5925 177.245 37.1325 176.381 39.4425L170.621 36.6994C172.157 32.32 176.669 29.5769 182.237 29.5769C188.861 29.5769 193.469 33.475 193.469 39.1056V56.4306H186.749V53.9762C184.685 56.0456 182.189 57.0081 178.877 57.0081ZM177.149 49.1637C177.149 50.8 178.493 51.7144 180.317 51.7144C183.869 51.7144 186.269 49.1637 186.269 45.9394V45.1212L180.317 46.18C178.253 46.565 177.149 47.4312 177.149 49.1637ZM194.765 56.4306L203.933 43.2444L194.717 30.1544H203.069L208.157 37.6619L213.245 30.1544H221.597L212.381 43.2444L221.501 56.4306H213.197L208.157 48.8269L203.117 56.4306H194.765ZM227.439 56.4306L239.535 20.5775H249.423L261.519 56.4306H253.407L251.007 49.1156H237.903L235.503 56.4306H227.439ZM239.967 42.6188H248.943L244.479 28.8069L239.967 42.6188ZM263.317 56.4306V20.5775H270.757V56.4306H263.317Z" fill="white"/>
</g>
<defs>
<clipPath id="clip0_822_1802">
<rect width="270.757" height="77" fill="white"/>
</clipPath>
<clipPath id="clip1_822_1802">
<rect width="77" height="77" fill="white"/>
</clipPath>
</defs>
</svg>
